<!DOCTYPE svg PUBLIC "-//W3C//DTD SVG 1.1//EN" "http://www.w3.org/Graphics/SVG/1.1/DTD/svg11.dtd">
<!-- Uploaded to: SVG Repo, www.svgrepo.com, Transformed by: SVG Repo Mixer Tools -->
<svg version="1.1" id="Uploaded to svgrepo.com" xmlns="http://www.w3.org/2000/svg" xmlns:xlink="http://www.w3.org/1999/xlink" width="800px" height="800px" viewBox="0 0 32 32" xml:space="preserve" fill="#50b300" stroke="#50b300">
<g id="SVGRepo_bgCarrier" stroke-width="0"/>
<g id="SVGRepo_tracerCarrier" stroke-linecap="round" stroke-linejoin="round"/>
<g id="SVGRepo_iconCarrier"> <style type="text/css"> .feather_een{fill:#50b300;} </style> <path class="feather_een" d="M16.663,1.573c-0.378-0.335-0.947-0.335-1.325,0c-0.077,0.068-0.145,0.129-0.192,0.171 C12.582,4.07,5,11.577,5,18.996c0,4.048,5.011,6.721,7.998,7.953c0.458,0.189,1.789,0.93,2.502,1.334v2.213 c0,0.276,0.224,0.5,0.5,0.5h0c0.276,0,0.5-0.224,0.5-0.5v-2.213c0.713-0.404,2.043-1.145,2.502-1.333 C21.989,25.717,27,23.045,27,18.996c0-7.418-7.581-14.925-10.145-17.252C16.808,1.702,16.74,1.641,16.663,1.573z M16.5,9.279 l3.933-2.36c0.849,1.017,1.7,2.143,2.479,3.346L16.5,14.113V9.279z M15.5,14.113l-6.412-3.847c0.779-1.203,1.63-2.33,2.479-3.347 l3.933,2.36V14.113z M15.5,15.279v5.834l-8.994-5.397c0.454-1.586,1.174-3.142,2.047-4.605L15.5,15.279z M16.5,15.279l6.947-4.168 c0.874,1.463,1.594,3.02,2.047,4.605L16.5,21.113V15.279z M19.775,6.149L16.5,8.113V2.776C17.323,3.539,18.515,4.711,19.775,6.149z M15.5,2.776v5.337l-3.274-1.965C13.486,4.711,14.677,3.539,15.5,2.776z M13.38,26.025C10.624,24.888,6,22.462,6,18.996 c0-0.754,0.101-1.51,0.256-2.263l9.244,5.547v4.856C14.803,26.746,13.813,26.204,13.38,26.025z M18.62,26.026 c-0.434,0.179-1.424,0.721-2.12,1.11v-4.856l9.244-5.547C25.899,17.486,26,18.242,26,18.996C26,22.462,21.376,24.888,18.62,26.026z"/> </g>
</svg>